<svg width="286" height="157" viewBox="0 0 286 157" fill="none" xmlns="http://www.w3.org/2000/svg">
<g clip-path="url(#clip0_36_2)">
<rect width="286" height="157" transform="matrix(1 0 0 -1 0 157)" fill="white"/>
<path d="M69.0445 38.312H110.389V92.904H105.333L91.7005 55.4H79.7965V59.496H86.4525L74.1005 92.904H69.0445V38.312ZM90.0365 62.184L96.8205 81.256H82.8045L89.7165 62.184H90.0365ZM110.389 110.632H69.0445V97H83.6365V92.904H78.5165L81.4605 84.904H98.1005L100.917 92.904H95.9885V97H110.389V110.632ZM108.857 110.632V38.312H156.089V110.632H108.857ZM148.985 59.496H153.017V55.4H138.617V59.496H144.569V79.912C144.569 88.9147 140.58 93.416 132.601 93.416C128.59 93.416 125.625 92.2853 123.705 90.024C121.785 87.7627 120.825 84.584 120.825 80.488V59.496H126.585V55.4H111.801V59.496H116.089V80.616C116.089 85.096 117.241 89.064 119.545 92.52C121.892 95.9333 126.158 97.64 132.345 97.64C136.612 97.64 139.94 96.7867 142.329 95.08C144.761 93.3307 146.468 91.112 147.449 88.424C148.473 85.6933 148.985 82.856 148.985 79.912V59.496ZM154.544 110.632V38.312H200.113V110.632H154.544ZM194.417 79.72H197.681V75.56H179.825V79.72H189.745V83.432C189.745 85.9493 188.699 88.2533 186.609 90.344C184.518 92.392 181.574 93.416 177.777 93.416C173.211 93.416 169.563 91.8373 166.833 88.68C164.102 85.5227 162.737 81.3627 162.737 76.2C162.737 71.1227 164.166 66.984 167.025 63.784C169.883 60.584 173.638 58.984 178.289 58.984C180.849 58.984 182.939 59.304 184.561 59.944C186.225 60.5413 187.633 61.224 188.785 61.992L190.065 67.88L194.033 67.432L192.881 59.624C191.302 58.216 189.254 57.064 186.737 56.168C184.262 55.2293 181.361 54.76 178.033 54.76C174.065 54.76 170.545 55.7413 167.473 57.704C164.443 59.624 162.054 62.2267 160.305 65.512C158.598 68.7547 157.745 72.3813 157.745 76.392C157.745 82.3653 159.515 87.4 163.057 91.496C166.598 95.592 171.227 97.64 176.945 97.64C180.017 97.64 182.683 97.0427 184.945 95.848C187.249 94.6107 189.019 93.0747 190.257 91.24L190.833 97H194.417V79.72Z" fill="#34DDBF"/>
<path d="M198.607 110.632V38.312H256.271V110.632H198.607ZM247.695 59.496H253.135V55.4H243.535L227.791 87.976H227.535L211.343 55.4H201.807V59.496H207.247V92.904H201.999V97H216.719V92.904H211.727V66.216H211.983L226.255 94.888H228.751L242.703 66.408H242.959V92.904H238.095V97H252.879V92.904H247.695V59.496ZM254.732 110.632V38.312H293.644V110.632H254.732ZM258.06 97H289.036L290.252 85.224L286.22 84.776L284.94 92.904H267.98V77.928H287.628V73.832H267.98V59.496H284.364L285.644 67.624L289.74 67.176L288.46 55.4H258.06V59.496H263.308V92.904H258.06V97ZM292.107 110.632V38.312H340.555V110.632H292.107ZM332.555 59.496H337.739V55.4H321.803V59.496H328.075V87.464H327.819L304.139 55.4H295.179V59.496H300.683V92.904H295.883V97H311.755V92.904H305.163V64.232H305.419L329.547 97H332.555V59.496ZM339.044 110.632V38.312H376.933V110.632H339.044ZM370.853 68.392L375.013 68.072L373.733 55.4H342.245L341.029 68.072L345.125 68.392L346.405 59.496H355.621V92.904H348.453V97H367.653V92.904H360.293V59.496H369.573L370.853 68.392ZM375.419 110.632V38.312H414.332V110.632H375.419ZM378.748 97H409.724L410.94 85.224L406.908 84.776L405.628 92.904H388.668V77.928H408.316V73.832H388.668V59.496H405.052L406.332 67.624L410.428 67.176L409.148 55.4H378.748V59.496H383.996V92.904H378.748V97ZM412.538 110.632V38.312H458.939V110.632H412.538ZM455.739 76.136C455.739 70.12 453.883 65.1707 450.171 61.288C446.501 57.3627 441.275 55.4 434.491 55.4H417.147V59.432H422.395V92.968H417.147V97H434.683C441.253 97 446.395 95.0587 450.107 91.176C453.861 87.2507 455.739 82.2373 455.739 76.136ZM450.747 76.2C450.747 81.3627 449.339 85.4587 446.523 88.488C443.749 91.4747 439.717 92.968 434.427 92.968H427.067V59.432H434.427C439.717 59.432 443.749 60.968 446.523 64.04C449.339 67.112 450.747 71.1653 450.747 76.2ZM2.6695 187.632V115.312H42.6055V187.632H2.6695ZM39.4055 162.224C39.4055 159.579 38.6802 157.275 37.2295 155.312C35.7788 153.307 33.5388 152.069 30.5095 151.6V151.344C32.6428 150.917 34.3708 149.872 35.6935 148.208C37.0162 146.544 37.6775 144.603 37.6775 142.384C37.6775 139.397 36.6322 136.987 34.5415 135.152C32.4935 133.317 29.3575 132.4 25.1335 132.4H5.9975V136.496H11.2455V169.904H5.9975V174H25.4535C30.0615 174 33.5388 172.869 35.8855 170.608C38.2322 168.304 39.4055 165.509 39.4055 162.224ZM32.6855 143.472C32.6855 145.776 31.8748 147.547 30.2535 148.784C28.6748 149.979 26.6482 150.576 24.1735 150.576H15.9175V136.496H24.3655C26.9682 136.496 28.9948 137.008 30.4455 138.032C31.9388 139.056 32.6855 140.869 32.6855 143.472ZM34.4135 161.968C34.4135 164.741 33.5175 166.768 31.7255 168.048C29.9762 169.285 27.6082 169.904 24.6215 169.904H15.9175V154.416H26.1575C28.8882 154.416 30.9362 155.099 32.3015 156.464C33.7095 157.787 34.4135 159.621 34.4135 161.968ZM41.0445 187.632V115.312H62.9325V187.632H41.0445ZM44.3725 174H59.5405V169.904H54.3565V136.496H59.5405V132.4H44.3725V136.496H49.6205V169.904H44.3725V174ZM61.4195 187.632V115.312H109.356V187.632H61.4195ZM106.22 153.2C106.22 147.269 104.3 142.213 100.46 138.032C96.6195 133.851 91.5848 131.76 85.3555 131.76C79.2115 131.76 74.1982 133.851 70.3155 138.032C66.4755 142.171 64.5555 147.227 64.5555 153.2C64.5555 159.088 66.4328 164.144 70.1875 168.368C73.9422 172.549 78.9555 174.64 85.2275 174.64C89.4088 174.64 93.0782 173.68 96.2355 171.76C99.3928 169.797 101.846 167.195 103.596 163.952C105.345 160.709 106.22 157.125 106.22 153.2ZM101.164 153.264C101.164 158.085 99.7768 162.16 97.0035 165.488C94.2302 168.773 90.3902 170.416 85.4835 170.416C80.4488 170.416 76.5448 168.709 73.7715 165.296C70.9982 161.883 69.6115 157.829 69.6115 153.136C69.6115 148.357 70.9982 144.304 73.7715 140.976C76.5448 137.648 80.4062 135.984 85.3555 135.984C90.1768 135.984 94.0168 137.627 96.8755 140.912C99.7342 144.155 101.164 148.272 101.164 153.264ZM107.794 187.632V115.312H129.683V187.632H107.794ZM111.123 174H126.291V169.904H121.107V136.496H126.291V132.4H111.123V136.496H116.371V169.904H111.123V174ZM128.169 187.632V115.312H176.618V187.632H128.169ZM168.618 136.496H173.802V132.4H157.866V136.496H164.138V164.464H163.882L140.202 132.4H131.242V136.496H136.746V169.904H131.946V174H147.818V169.904H141.226V141.232H141.482L165.61 174H168.618V136.496ZM175.107 187.632V115.312H212.099V187.632H175.107ZM205.763 144.816L209.987 144.368L208.643 132.4H178.435V136.496H183.683V169.904H178.435V174H195.715V169.904H188.355V156.784H207.491V152.688H188.355V136.496H204.483L205.763 144.816ZM210.544 187.632V115.312H258.481V187.632H210.544ZM255.345 153.2C255.345 147.269 253.425 142.213 249.585 138.032C245.745 133.851 240.71 131.76 234.481 131.76C228.337 131.76 223.323 133.851 219.441 138.032C215.601 142.171 213.681 147.227 213.681 153.2C213.681 159.088 215.558 164.144 219.312 168.368C223.067 172.549 228.081 174.64 234.353 174.64C238.534 174.64 242.203 173.68 245.361 171.76C248.518 169.797 250.971 167.195 252.721 163.952C254.47 160.709 255.345 157.125 255.345 153.2ZM250.289 153.264C250.289 158.085 248.902 162.16 246.129 165.488C243.355 168.773 239.515 170.416 234.609 170.416C229.574 170.416 225.67 168.709 222.897 165.296C220.123 161.883 218.737 157.829 218.737 153.136C218.737 148.357 220.123 144.304 222.897 140.976C225.67 137.648 229.531 135.984 234.481 135.984C239.302 135.984 243.142 137.627 246.001 140.912C248.859 144.155 250.289 148.272 250.289 153.264ZM256.919 187.632V115.312H297.688V187.632H256.919ZM288.088 174H296.408V169.904H291.16L283.736 155.696C286.68 154.928 288.898 153.499 290.392 151.408C291.885 149.275 292.632 146.864 292.632 144.176C292.632 140.805 291.522 138.011 289.304 135.792C287.085 133.531 283.394 132.4 278.232 132.4H260.248V136.496H265.496V169.904H260.248V174H275.8V169.904H270.232V156.592H279.128L288.088 174ZM287.704 144.368C287.704 146.971 286.936 149.019 285.4 150.512C283.864 151.963 281.325 152.688 277.784 152.688H270.232V136.496H277.656C281.197 136.496 283.757 137.136 285.336 138.416C286.914 139.653 287.704 141.637 287.704 144.368ZM296.169 187.632V115.312H353.834V187.632H296.169ZM345.258 136.496H350.698V132.4H341.098L325.354 164.976H325.098L308.906 132.4H299.37V136.496H304.81V169.904H299.562V174H314.282V169.904H309.29V143.216H309.546L323.818 171.888H326.314L340.266 143.408H340.522V169.904H335.658V174H350.442V169.904H345.258V136.496ZM352.294 115.312H393.639V169.904H388.583L374.951 132.4H363.047V136.496H369.703L357.351 169.904H352.294V115.312ZM373.287 139.184L380.071 158.256H366.055L372.967 139.184H373.287ZM393.639 187.632H352.294V174H366.887V169.904H361.767L364.711 161.904H381.351L384.167 169.904H379.239V174H393.639V187.632ZM392.107 187.632V115.312H429.995V187.632H392.107ZM423.915 145.392L428.075 145.072L426.795 132.4H395.307L394.091 145.072L398.187 145.392L399.467 136.496H408.683V169.904H401.515V174H420.715V169.904H413.355V136.496H422.635L423.915 145.392ZM428.482 187.632V115.312H450.37V187.632H428.482ZM431.81 174H446.978V169.904H441.794V136.496H446.978V132.4H431.81V136.496H437.058V169.904H431.81V174ZM448.857 187.632V115.312H491.481V187.632H448.857ZM486.297 170.8L487.385 162.8L483.417 162.416L482.201 168.56C479.726 169.797 476.676 170.416 473.049 170.416C468.1 170.416 464.174 168.859 461.273 165.744C458.414 162.587 456.985 158.427 456.985 153.264C456.985 148.229 458.372 144.091 461.145 140.848C463.961 137.605 467.652 135.984 472.217 135.984C474.564 135.984 476.526 136.261 478.105 136.816C479.684 137.328 481.156 138.032 482.521 138.928L483.673 145.008L487.705 144.624L486.553 136.624C484.846 135.173 482.82 134 480.473 133.104C478.169 132.208 475.289 131.76 471.833 131.76C467.78 131.76 464.281 132.763 461.337 134.768C458.393 136.773 456.11 139.44 454.489 142.768C452.868 146.053 452.057 149.616 452.057 153.456C452.057 159.515 453.934 164.571 457.689 168.624C461.444 172.635 466.35 174.64 472.409 174.64C478.34 174.64 482.969 173.36 486.297 170.8ZM489.919 187.632V115.312H525.312V187.632H489.919ZM521.92 162.352C521.92 159.195 521.152 156.827 519.616 155.248C518.122 153.627 516.309 152.496 514.176 151.856C512.085 151.173 510.101 150.619 508.224 150.192C505.877 149.637 503.744 148.912 501.824 148.016C499.904 147.12 498.944 145.371 498.944 142.768C498.944 140.549 499.733 138.864 501.312 137.712C502.933 136.517 505.045 135.92 507.648 135.92C508.885 135.92 510.186 136.048 511.552 136.304C512.917 136.517 514.261 136.965 515.584 137.648L516.224 143.856L520.064 143.472L519.68 135.216C518.357 134.192 516.522 133.36 514.176 132.72C511.829 132.08 509.504 131.76 507.2 131.76C503.616 131.76 500.501 132.699 497.856 134.576C495.253 136.453 493.952 139.355 493.952 143.28C493.952 146.011 494.592 148.101 495.872 149.552C497.152 150.96 498.752 152.005 500.672 152.688C502.592 153.328 504.533 153.861 506.496 154.288C509.056 154.885 511.424 155.675 513.6 156.656C515.776 157.595 516.864 159.643 516.864 162.8C516.864 165.616 515.861 167.621 513.856 168.816C511.893 169.968 509.546 170.544 506.816 170.544C505.28 170.544 503.808 170.416 502.4 170.16C500.992 169.904 499.584 169.413 498.176 168.688L498.432 163.44L494.592 163.056L493.696 171.248C496.81 173.509 501.269 174.64 507.072 174.64C511.296 174.64 514.816 173.595 517.632 171.504C520.49 169.413 521.92 166.363 521.92 162.352ZM523.602 187.632V115.312H541.587V187.632H523.602Z" fill="white"/>
<path d="M-19 58C19.5587 100.656 39.9721 104.624 81.933 108.592C115.502 111.767 164.27 109.915 193 108.592C297 103.804 295.81 104.08 382 114C468.19 123.92 471.296 94.96 528 90C573.363 86.032 574.501 198.204 590 189.937" stroke="#34DDBF" stroke-width="8" stroke-linecap="round"/>
</g>
<defs>
<clipPath id="clip0_36_2">
<rect width="286" height="157" fill="white" transform="matrix(1 0 0 -1 0 157)"/>
</clipPath>
</defs>
</svg>
